<svg width="6166" height="1818" fill="none" xmlns="http://www.w3.org/2000/svg"><g clip-path="url(#a)"><path fill="#101010" d="M0 1818V0h6166v1818z"/><path d="m404.795 764.448 82.607 82.607 495.651-495.651-82.607-82.607-495.651 495.651zM1272.16 1466.6 776.542 970.975l-.008-.008-82.608 82.613c34.219 34.21 34.219 89.69 0 123.91-34.216 34.21-89.693 34.21-123.913 0-34.215-34.22-34.215-89.7 0-123.91l130.651-130.656 358.266-358.261 130.65-130.651c34.21-34.22 89.69-34.22 123.91 0 34.22 34.215 34.22 89.697 0 123.912-34.22 34.216-89.69 34.216-123.91 0l-82.61 82.609 495.63 495.637 82.61-82.61-364.98-364.984c27.7-9.859 53.69-25.87 75.87-48.043 79.84-79.839 79.84-209.287 0-289.13-79.84-79.839-209.29-79.839-289.13 0L487.405 970.967c-79.839 79.843-79.839 209.283 0 289.133 79.838 79.84 209.286 79.84 289.129 0 22.173-22.18 38.185-48.17 48.043-75.87l364.983 364.98 82.61-82.61h-.01z" fill="#D6FF00"/><path d="m914.209 833.285-82.607 82.607 495.648 495.648 82.61-82.6-495.651-495.655zM1051.89 695.603l-82.603 82.607 495.653 495.65 82.6-82.61-495.65-495.647zM2343.1 1092.8c-51.8 0-98.47-10.97-140-32.9-41.07-21.93-73.5-52.27-97.3-91-23.33-38.733-35-82.367-35-130.9s11.67-92.167 35-130.9c23.8-38.733 56.23-69.067 97.3-91 41.53-21.933 88.2-32.9 140-32.9s98.23 10.967 139.3 32.9c41.53 21.933 73.97 52.267 97.3 91 23.8 38.733 35.7 82.367 35.7 130.9s-11.9 92.167-35.7 130.9c-23.33 38.73-55.77 69.07-97.3 91-41.07 21.93-87.5 32.9-139.3 32.9zm0-114.8c24.73 0 47.13-5.833 67.2-17.5s35.93-28 47.6-49c11.67-21.467 17.5-45.967 17.5-73.5s-5.83-51.8-17.5-72.8c-11.67-21.467-27.53-38.033-47.6-49.7-20.07-11.667-42.47-17.5-67.2-17.5-24.73 0-47.13 5.833-67.2 17.5s-35.93 28.233-47.6 49.7c-11.67 21-17.5 45.267-17.5 72.8 0 27.533 5.83 52.033 17.5 73.5 11.67 21 27.53 37.333 47.6 49 20.07 11.667 42.47 17.5 67.2 17.5zm571.69-280.7c47.14 0 84.94 14 113.4 42 28.94 28 43.4 70.233 43.4 126.7v217h-133V887.7c0-51.8-20.76-77.7-62.3-77.7-22.86 0-41.3 7.467-55.3 22.4-13.53 14.933-20.3 37.333-20.3 67.2V1083h-133V703.6h126.7v41.3c14.94-15.4 32.67-27.067 53.2-35 20.54-8.4 42.94-12.6 67.2-12.6zM3534.36 894c0 .933-.7 11.9-2.1 32.9h-275.8c5.6 19.6 16.34 34.767 32.2 45.5 16.34 10.267 36.64 15.4 60.9 15.4 18.2 0 33.84-2.567 46.9-7.7 13.54-5.133 27.07-13.533 40.6-25.2l70 72.8c-36.86 41.07-90.76 61.6-161.7 61.6-44.33 0-83.3-8.4-116.9-25.2-33.6-16.8-59.73-40.13-78.4-70-18.2-29.867-27.3-63.7-27.3-101.5 0-37.333 8.87-70.7 26.6-100.1 18.2-29.867 43.17-53.2 74.9-70 31.74-16.8 67.44-25.2 107.1-25.2 37.8 0 72.1 7.933 102.9 23.8 30.8 15.4 55.07 38.033 72.8 67.9 18.2 29.4 27.3 64.4 27.3 105zm-202.3-102.2c-20.53 0-37.8 5.833-51.8 17.5-13.53 11.667-22.16 27.533-25.9 47.6h155.4c-3.73-20.067-12.6-35.933-26.6-47.6-13.53-11.667-30.56-17.5-51.1-17.5zm500.22 301c-51.33 0-97.53-10.73-138.6-32.2-40.6-21.93-72.56-52.27-95.9-91-23.33-38.733-35-82.6-35-131.6s11.67-92.867 35-131.6c23.34-38.733 55.3-68.833 95.9-90.3 41.07-21.933 87.27-32.9 138.6-32.9 44.8 0 85.17 7.933 121.1 23.8 35.94 15.867 65.8 38.733 89.6 68.6l-88.2 79.8c-31.73-38.267-70.23-57.4-115.5-57.4-26.6 0-50.4 5.833-71.4 17.5-20.53 11.667-36.63 28.233-48.3 49.7-11.2 21-16.8 45.267-16.8 72.8 0 27.533 5.6 52.033 16.8 73.5 11.67 21 27.77 37.333 48.3 49 21 11.667 44.8 17.5 71.4 17.5 45.27 0 83.77-19.133 115.5-57.4l88.2 79.8c-23.8 29.87-53.66 52.73-89.6 68.6-35.93 15.87-76.3 23.8-121.1 23.8zm499.3-395.5c47.13 0 84.93 14 113.4 42 28.93 28 43.4 70.233 43.4 126.7v217h-133V887.7c0-51.8-20.77-77.7-62.3-77.7-22.87 0-41.3 7.467-55.3 22.4-13.53 14.933-20.3 37.333-20.3 67.2V1083h-133V563.6h133v175c14.47-13.533 31.5-23.8 51.1-30.8s40.6-10.5 63-10.5zM4951.15 894c0 .933-.7 11.9-2.1 32.9h-275.8c5.6 19.6 16.34 34.767 32.2 45.5 16.34 10.267 36.64 15.4 60.9 15.4 18.2 0 33.84-2.567 46.9-7.7 13.54-5.133 27.07-13.533 40.6-25.2l70 72.8c-36.86 41.07-90.76 61.6-161.7 61.6-44.33 0-83.3-8.4-116.9-25.2-33.6-16.8-59.73-40.13-78.4-70-18.2-29.867-27.3-63.7-27.3-101.5 0-37.333 8.87-70.7 26.6-100.1 18.2-29.867 43.17-53.2 74.9-70 31.74-16.8 67.44-25.2 107.1-25.2 37.8 0 72.1 7.933 102.9 23.8 30.8 15.4 55.07 38.033 72.8 67.9 18.2 29.4 27.3 64.4 27.3 105zm-202.3-102.2c-20.53 0-37.8 5.833-51.8 17.5-13.53 11.667-22.16 27.533-25.9 47.6h155.4c-3.73-20.067-12.6-35.933-26.6-47.6-13.53-11.667-30.56-17.5-51.1-17.5zm387.52 297.5c-31.73 0-63-3.5-93.8-10.5-30.8-7.47-55.53-17.03-74.2-28.7l39.9-91c17.27 10.733 37.8 19.367 61.6 25.9 23.8 6.067 47.37 9.1 70.7 9.1 21.47 0 36.64-2.1 45.5-6.3 9.34-4.667 14-11.2 14-19.6 0-8.4-5.6-14.233-16.8-17.5-10.73-3.733-28-7.233-51.8-10.5-30.33-3.733-56.23-8.633-77.7-14.7-21-6.067-39.2-17.267-54.6-33.6-15.4-16.333-23.1-39.2-23.1-68.6 0-24.267 7.24-45.733 21.7-64.4 14.47-19.133 35.47-34.067 63-44.8 28-11.2 61.37-16.8 100.1-16.8 27.54 0 54.84 2.8 81.9 8.4 27.07 5.6 49.7 13.533 67.9 23.8l-39.9 90.3c-33.6-18.667-70-28-109.2-28-21 0-36.4 2.567-46.2 7.7-9.8 4.667-14.7 10.967-14.7 18.9 0 8.867 5.37 15.167 16.1 18.9 10.74 3.267 28.47 6.767 53.2 10.5 31.27 4.667 57.17 10.033 77.7 16.1 20.54 6.067 38.27 17.267 53.2 33.6 15.4 15.867 23.1 38.267 23.1 67.2 0 23.8-7.23 45.27-21.7 64.4-14.46 18.67-35.93 33.37-64.4 44.1-28 10.73-61.83 16.1-101.5 16.1zm368.82 0c-31.74 0-63-3.5-93.8-10.5-30.8-7.47-55.54-17.03-74.2-28.7l39.9-91c17.26 10.733 37.8 19.367 61.6 25.9 23.8 6.067 47.36 9.1 70.7 9.1 21.46 0 36.63-2.1 45.5-6.3 9.33-4.667 14-11.2 14-19.6 0-8.4-5.6-14.233-16.8-17.5-10.74-3.733-28-7.233-51.8-10.5-30.34-3.733-56.24-8.633-77.7-14.7-21-6.067-39.2-17.267-54.6-33.6-15.4-16.333-23.1-39.2-23.1-68.6 0-24.267 7.23-45.733 21.7-64.4 14.46-19.133 35.46-34.067 63-44.8 28-11.2 61.36-16.8 100.1-16.8 27.53 0 54.83 2.8 81.9 8.4 27.06 5.6 49.7 13.533 67.9 23.8l-39.9 90.3c-33.6-18.667-70-28-109.2-28-21 0-36.4 2.567-46.2 7.7-9.8 4.667-14.7 10.967-14.7 18.9 0 8.867 5.36 15.167 16.1 18.9 10.73 3.267 28.46 6.767 53.2 10.5 31.26 4.667 57.16 10.033 77.7 16.1 20.53 6.067 38.26 17.267 53.2 33.6 15.4 15.867 23.1 38.267 23.1 67.2 0 23.8-7.24 45.27-21.7 64.4-14.47 18.67-35.94 33.37-64.4 44.1-28 10.73-61.84 16.1-101.5 16.1zM2202.23 1384.88c-16.45 0-31.33-3.6-44.65-10.81-13.16-7.36-23.5-17.39-31.02-30.08-7.52-12.85-11.28-27.26-11.28-43.24s3.76-30.32 11.28-43.01c7.52-12.84 17.94-22.87 31.26-30.08 13.31-7.36 28.2-11.04 44.65-11.04 12.84 0 24.59 2.19 35.25 6.58 10.65 4.23 19.74 10.57 27.26 19.03l-15.28 14.81c-12.38-13-27.81-19.51-46.29-19.51-12.22 0-23.27 2.75-33.14 8.23-9.87 5.48-17.62 13.08-23.26 22.79-5.49 9.56-8.23 20.29-8.23 32.2 0 11.91 2.74 22.72 8.23 32.43 5.64 9.56 13.39 17.08 23.26 22.56 9.87 5.48 20.92 8.22 33.14 8.22 18.33 0 33.76-6.58 46.29-19.74l15.28 14.81c-7.52 8.46-16.69 14.88-27.5 19.27-10.65 4.39-22.4 6.58-35.25 6.58zm154.78-127.61c15.83 0 28.36 4.63 37.6 13.87 9.4 9.09 14.1 22.48 14.1 40.18V1383h-22.56v-69.09c0-12.06-2.89-21.15-8.69-27.26-5.8-6.11-14.1-9.17-24.91-9.17-12.22 0-21.86 3.61-28.91 10.81-7.05 7.05-10.57 17.24-10.57 30.55V1383h-22.56v-174.37h22.56v67.44c4.7-5.95 10.81-10.57 18.33-13.86 7.68-3.29 16.21-4.94 25.61-4.94zm202.01 64.16c0 1.72-.16 3.99-.47 6.81H2457.5c1.41 10.97 6.19 19.82 14.33 26.56 8.31 6.58 18.57 9.87 30.79 9.87 14.88 0 26.87-5.01 35.95-15.04l12.46 14.57c-5.64 6.58-12.69 11.59-21.15 15.04-8.3 3.45-17.63 5.17-27.97 5.17-13.16 0-24.83-2.66-35.01-7.99-10.18-5.48-18.1-13.08-23.74-22.8-5.48-9.71-8.22-20.68-8.22-32.9 0-12.06 2.66-22.95 7.99-32.66 5.48-9.71 12.92-17.23 22.32-22.56 9.56-5.48 20.29-8.23 32.2-8.23 11.91 0 22.48 2.75 31.72 8.23 9.4 5.33 16.69 12.85 21.86 22.56 5.33 9.71 7.99 20.84 7.99 33.37zm-61.57-45.12c-10.81 0-19.9 3.29-27.26 9.87-7.21 6.58-11.44 15.2-12.69 25.85h79.9c-1.25-10.5-5.56-19.04-12.93-25.62-7.2-6.73-16.21-10.1-27.02-10.1zm123.92 108.1c-10.19 0-19.98-1.33-29.38-4-9.4-2.82-16.76-6.34-22.09-10.57l9.4-17.86c5.48 3.92 12.14 7.05 19.98 9.4 7.83 2.35 15.74 3.52 23.73 3.52 19.74 0 29.61-5.64 29.61-16.92 0-3.76-1.33-6.73-3.99-8.93-2.67-2.19-6.04-3.76-10.11-4.7-3.92-1.09-9.56-2.27-16.92-3.52-10.03-1.57-18.25-3.37-24.67-5.41-6.27-2.03-11.68-5.48-16.22-10.34-4.54-4.85-6.81-11.67-6.81-20.44 0-11.28 4.7-20.29 14.1-27.03 9.4-6.89 22.01-10.34 37.83-10.34 8.3 0 16.61 1.02 24.91 3.06s15.12 4.78 20.45 8.22l-9.64 17.86c-10.18-6.58-22.17-9.87-35.95-9.87-9.56 0-16.85 1.57-21.86 4.7-5.01 3.14-7.52 7.29-7.52 12.46 0 4.07 1.41 7.28 4.23 9.63 2.82 2.35 6.27 4.08 10.34 5.17 4.23 1.1 10.11 2.35 17.63 3.76 10.02 1.73 18.09 3.61 24.2 5.64 6.27 1.88 11.59 5.17 15.98 9.87 4.39 4.7 6.58 11.28 6.58 19.74 0 11.28-4.86 20.29-14.57 27.03-9.56 6.58-22.64 9.87-39.24 9.87zm113.02 0c-10.18 0-19.97-1.33-29.37-4-9.4-2.82-16.76-6.34-22.09-10.57l9.4-17.86c5.48 3.92 12.14 7.05 19.97 9.4 7.84 2.35 15.75 3.52 23.74 3.52 19.74 0 29.61-5.64 29.61-16.92 0-3.76-1.33-6.73-4-8.93-2.66-2.19-6.03-3.76-10.1-4.7-3.92-1.09-9.56-2.27-16.92-3.52-10.03-1.57-18.25-3.37-24.68-5.41-6.26-2.03-11.67-5.48-16.21-10.34-4.54-4.85-6.82-11.67-6.82-20.44 0-11.28 4.7-20.29 14.1-27.03 9.4-6.89 22.02-10.34 37.84-10.34 8.3 0 16.61 1.02 24.91 3.06s15.12 4.78 20.44 8.22l-9.63 17.86c-10.18-6.58-22.17-9.87-35.96-9.87-9.55 0-16.84 1.57-21.85 4.7-5.01 3.14-7.52 7.29-7.52 12.46 0 4.07 1.41 7.28 4.23 9.63 2.82 2.35 6.27 4.08 10.34 5.17 4.23 1.1 10.1 2.35 17.62 3.76 10.03 1.73 18.1 3.61 24.21 5.64 6.27 1.88 11.59 5.17 15.98 9.87 4.39 4.7 6.58 11.28 6.58 19.74 0 11.28-4.86 20.29-14.57 27.03-9.56 6.58-22.64 9.87-39.25 9.87zm212.57.47c-16.45 0-31.33-3.6-44.65-10.81-13.16-7.36-23.5-17.39-31.02-30.08-7.52-12.85-11.28-27.26-11.28-43.24s3.76-30.32 11.28-43.01c7.52-12.84 17.94-22.87 31.25-30.08 13.32-7.36 28.2-11.04 44.65-11.04 12.85 0 24.6 2.19 35.25 6.58 10.66 4.23 19.74 10.57 27.26 19.03l-15.27 14.81c-12.38-13-27.81-19.51-46.3-19.51-12.22 0-23.26 2.75-33.13 8.23-9.87 5.48-17.63 13.08-23.27 22.79-5.48 9.56-8.22 20.29-8.22 32.2 0 11.91 2.74 22.72 8.22 32.43 5.64 9.56 13.4 17.08 23.27 22.56s20.91 8.22 33.13 8.22c18.33 0 33.77-6.58 46.3-19.74l15.27 14.81c-7.52 8.46-16.68 14.88-27.49 19.27-10.65 4.39-22.4 6.58-35.25 6.58zm88.28-176.25h22.56V1383h-22.56v-174.37zm177.02 49.82V1383h-21.38v-18.8c-4.54 6.42-10.58 11.44-18.1 15.04-7.36 3.45-15.43 5.17-24.2 5.17-16.61 0-29.69-4.54-39.25-13.63-9.55-9.24-14.33-22.8-14.33-40.66v-71.67h22.56v69.09c0 12.06 2.9 21.23 8.69 27.49 5.8 6.11 14.1 9.17 24.91 9.17 11.91 0 21.31-3.6 28.2-10.81 6.9-7.21 10.34-17.39 10.34-30.55v-64.39h22.56zm104.29-1.18c12.06 0 22.87 2.67 32.43 7.99 9.55 5.33 17 12.77 22.32 22.33 5.49 9.56 8.23 20.6 8.23 33.13 0 12.54-2.74 23.66-8.23 33.37-5.32 9.56-12.77 17-22.32 22.33-9.56 5.33-20.37 7.99-32.43 7.99-9.25 0-17.71-1.8-25.38-5.41-7.68-3.6-14.02-8.85-19.04-15.74V1383h-21.62v-174.37h22.56v68.62c5.02-6.58 11.28-11.52 18.8-14.81 7.52-3.44 15.75-5.17 24.68-5.17zm-1.88 107.4c7.99 0 15.12-1.8 21.38-5.41 6.43-3.76 11.44-8.93 15.04-15.51 3.76-6.73 5.64-14.41 5.64-23.03 0-8.61-1.88-16.21-5.64-22.79-3.6-6.74-8.61-11.91-15.04-15.51-6.26-3.6-13.39-5.41-21.38-5.41-7.84 0-14.96 1.81-21.39 5.41-6.42 3.6-11.43 8.77-15.04 15.51-3.6 6.58-5.4 14.18-5.4 22.79 0 8.62 1.8 16.3 5.4 23.03 3.61 6.58 8.62 11.75 15.04 15.51 6.43 3.61 13.55 5.41 21.39 5.41z" fill="#D6FF00"/></g><defs><clipPath id="a"><path fill="#fff" transform="rotate(-90 909 909)" d="M0 0h1818v6166H0z"/></clipPath></defs></svg>