<svg width="6166" height="1818" viewBox="0 0 6166 1818" fill="none" xmlns="http://www.w3.org/2000/svg">
<g clip-path="url(#clip0_0_11)">
<rect width="1818" height="6166" transform="matrix(0 -1 1 0 0 1818)" fill="#101010"/>
<path d="M404.795 764.448L487.402 847.055L983.053 351.404L900.446 268.797L404.795 764.448Z" fill="#D6FF00"/>
<path d="M1272.16 1466.6L776.542 970.975L776.534 970.967L693.926 1053.58C728.145 1087.79 728.145 1143.27 693.926 1177.49C659.71 1211.7 604.233 1211.7 570.013 1177.49C535.798 1143.27 535.798 1087.79 570.013 1053.58L700.664 922.924L1058.93 564.663L1189.58 434.012C1223.79 399.792 1279.27 399.792 1313.49 434.012C1347.71 468.227 1347.71 523.709 1313.49 557.924C1279.27 592.14 1223.8 592.14 1189.58 557.924L1106.97 640.533L1602.6 1136.17L1685.21 1053.56L1320.23 688.576C1347.93 678.717 1373.92 662.706 1396.1 640.533C1475.94 560.694 1475.94 431.246 1396.1 351.403C1316.26 271.564 1186.81 271.564 1106.97 351.403L487.405 970.967C407.566 1050.81 407.566 1180.25 487.405 1260.1C567.243 1339.94 696.691 1339.94 776.534 1260.1C798.707 1237.92 814.719 1211.93 824.577 1184.23L1189.56 1549.21L1272.17 1466.6L1272.16 1466.6Z" fill="#D6FF00"/>
<path d="M914.209 833.285L831.602 915.892L1327.25 1411.54L1409.86 1328.94L914.209 833.285Z" fill="#D6FF00"/>
<path d="M1051.89 695.603L969.287 778.21L1464.94 1273.86L1547.54 1191.25L1051.89 695.603Z" fill="#D6FF00"/>
<path d="M2343.1 1092.8C2291.3 1092.8 2244.63 1081.83 2203.1 1059.9C2162.03 1037.97 2129.6 1007.63 2105.8 968.9C2082.47 930.167 2070.8 886.533 2070.8 838C2070.8 789.467 2082.47 745.833 2105.8 707.1C2129.6 668.367 2162.03 638.033 2203.1 616.1C2244.63 594.167 2291.3 583.2 2343.1 583.2C2394.9 583.2 2441.33 594.167 2482.4 616.1C2523.93 638.033 2556.37 668.367 2579.7 707.1C2603.5 745.833 2615.4 789.467 2615.4 838C2615.4 886.533 2603.5 930.167 2579.7 968.9C2556.37 1007.63 2523.93 1037.97 2482.4 1059.9C2441.33 1081.83 2394.9 1092.8 2343.1 1092.8ZM2343.1 978C2367.83 978 2390.23 972.167 2410.3 960.5C2430.37 948.833 2446.23 932.5 2457.9 911.5C2469.57 890.033 2475.4 865.533 2475.4 838C2475.4 810.467 2469.57 786.2 2457.9 765.2C2446.23 743.733 2430.37 727.167 2410.3 715.5C2390.23 703.833 2367.83 698 2343.1 698C2318.37 698 2295.97 703.833 2275.9 715.5C2255.83 727.167 2239.97 743.733 2228.3 765.2C2216.63 786.2 2210.8 810.467 2210.8 838C2210.8 865.533 2216.63 890.033 2228.3 911.5C2239.97 932.5 2255.83 948.833 2275.9 960.5C2295.97 972.167 2318.37 978 2343.1 978ZM2914.79 697.3C2961.93 697.3 2999.73 711.3 3028.19 739.3C3057.13 767.3 3071.59 809.533 3071.59 866V1083H2938.59V887.7C2938.59 835.9 2917.83 810 2876.29 810C2853.43 810 2834.99 817.467 2820.99 832.4C2807.46 847.333 2800.69 869.733 2800.69 899.6V1083H2667.69V703.6H2794.39V744.9C2809.33 729.5 2827.06 717.833 2847.59 709.9C2868.13 701.5 2890.53 697.3 2914.79 697.3ZM3534.36 894C3534.36 894.933 3533.66 905.9 3532.26 926.9L3256.46 926.9C3262.06 946.5 3272.8 961.667 3288.66 972.4C3305 982.667 3325.3 987.8 3349.56 987.8C3367.76 987.8 3383.4 985.233 3396.46 980.1C3410 974.967 3423.53 966.567 3437.06 954.9L3507.06 1027.7C3470.2 1068.77 3416.3 1089.3 3345.36 1089.3C3301.03 1089.3 3262.06 1080.9 3228.46 1064.1C3194.86 1047.3 3168.73 1023.97 3150.06 994.1C3131.86 964.233 3122.76 930.4 3122.76 892.6C3122.76 855.267 3131.63 821.9 3149.36 792.5C3167.56 762.633 3192.53 739.3 3224.26 722.5C3256 705.7 3291.7 697.3 3331.36 697.3C3369.16 697.3 3403.46 705.233 3434.26 721.1C3465.06 736.5 3489.33 759.133 3507.06 789C3525.26 818.4 3534.36 853.4 3534.36 894ZM3332.06 791.8C3311.53 791.8 3294.26 797.633 3280.26 809.3C3266.73 820.967 3258.1 836.833 3254.36 856.9H3409.76C3406.03 836.833 3397.16 820.967 3383.16 809.3C3369.63 797.633 3352.6 791.8 3332.06 791.8ZM3832.28 1092.8C3780.95 1092.8 3734.75 1082.07 3693.68 1060.6C3653.08 1038.67 3621.12 1008.33 3597.78 969.6C3574.45 930.867 3562.78 887 3562.78 838C3562.78 789 3574.45 745.133 3597.78 706.4C3621.12 667.667 3653.08 637.567 3693.68 616.1C3734.75 594.167 3780.95 583.2 3832.28 583.2C3877.08 583.2 3917.45 591.133 3953.38 607C3989.32 622.867 4019.18 645.733 4042.98 675.6L3954.78 755.4C3923.05 717.133 3884.55 698 3839.28 698C3812.68 698 3788.88 703.833 3767.88 715.5C3747.35 727.167 3731.25 743.733 3719.58 765.2C3708.38 786.2 3702.78 810.467 3702.78 838C3702.78 865.533 3708.38 890.033 3719.58 911.5C3731.25 932.5 3747.35 948.833 3767.88 960.5C3788.88 972.167 3812.68 978 3839.28 978C3884.55 978 3923.05 958.867 3954.78 920.6L4042.98 1000.4C4019.18 1030.27 3989.32 1053.13 3953.38 1069C3917.45 1084.87 3877.08 1092.8 3832.28 1092.8ZM4331.58 697.3C4378.71 697.3 4416.51 711.3 4444.98 739.3C4473.91 767.3 4488.38 809.533 4488.38 866V1083H4355.38V887.7C4355.38 835.9 4334.61 810 4293.08 810C4270.21 810 4251.78 817.467 4237.78 832.4C4224.25 847.333 4217.48 869.733 4217.48 899.6V1083H4084.48V563.6H4217.48V738.6C4231.95 725.067 4248.98 714.8 4268.58 707.8C4288.18 700.8 4309.18 697.3 4331.58 697.3ZM4951.15 894C4951.15 894.933 4950.45 905.9 4949.05 926.9H4673.25C4678.85 946.5 4689.59 961.667 4705.45 972.4C4721.79 982.667 4742.09 987.8 4766.35 987.8C4784.55 987.8 4800.19 985.233 4813.25 980.1C4826.79 974.967 4840.32 966.567 4853.85 954.9L4923.85 1027.7C4886.99 1068.77 4833.09 1089.3 4762.15 1089.3C4717.82 1089.3 4678.85 1080.9 4645.25 1064.1C4611.65 1047.3 4585.52 1023.97 4566.85 994.1C4548.65 964.233 4539.55 930.4 4539.55 892.6C4539.55 855.267 4548.42 821.9 4566.15 792.5C4584.35 762.633 4609.32 739.3 4641.05 722.5C4672.79 705.7 4708.49 697.3 4748.15 697.3C4785.95 697.3 4820.25 705.233 4851.05 721.1C4881.85 736.5 4906.12 759.133 4923.85 789C4942.05 818.4 4951.15 853.4 4951.15 894ZM4748.85 791.8C4728.32 791.8 4711.05 797.633 4697.05 809.3C4683.52 820.967 4674.89 836.833 4671.15 856.9H4826.55C4822.82 836.833 4813.95 820.967 4799.95 809.3C4786.42 797.633 4769.39 791.8 4748.85 791.8ZM5136.37 1089.3C5104.64 1089.3 5073.37 1085.8 5042.57 1078.8C5011.77 1071.33 4987.04 1061.77 4968.37 1050.1L5008.27 959.1C5025.54 969.833 5046.07 978.467 5069.87 985C5093.67 991.067 5117.24 994.1 5140.57 994.1C5162.04 994.1 5177.21 992 5186.07 987.8C5195.41 983.133 5200.07 976.6 5200.07 968.2C5200.07 959.8 5194.47 953.967 5183.27 950.7C5172.54 946.967 5155.27 943.467 5131.47 940.2C5101.14 936.467 5075.24 931.567 5053.77 925.5C5032.77 919.433 5014.57 908.233 4999.17 891.9C4983.77 875.567 4976.07 852.7 4976.07 823.3C4976.07 799.033 4983.31 777.567 4997.77 758.9C5012.24 739.767 5033.24 724.833 5060.77 714.1C5088.77 702.9 5122.14 697.3 5160.87 697.3C5188.41 697.3 5215.71 700.1 5242.77 705.7C5269.84 711.3 5292.47 719.233 5310.67 729.5L5270.77 819.8C5237.17 801.133 5200.77 791.8 5161.57 791.8C5140.57 791.8 5125.17 794.367 5115.37 799.5C5105.57 804.167 5100.67 810.467 5100.67 818.4C5100.67 827.267 5106.04 833.567 5116.77 837.3C5127.51 840.567 5145.24 844.067 5169.97 847.8C5201.24 852.467 5227.14 857.833 5247.67 863.9C5268.21 869.967 5285.94 881.167 5300.87 897.5C5316.27 913.367 5323.97 935.767 5323.97 964.7C5323.97 988.5 5316.74 1009.97 5302.27 1029.1C5287.81 1047.77 5266.34 1062.47 5237.87 1073.2C5209.87 1083.93 5176.04 1089.3 5136.37 1089.3ZM5505.19 1089.3C5473.45 1089.3 5442.19 1085.8 5411.39 1078.8C5380.59 1071.33 5355.85 1061.77 5337.19 1050.1L5377.09 959.1C5394.35 969.833 5414.89 978.467 5438.69 985C5462.49 991.067 5486.05 994.1 5509.39 994.1C5530.85 994.1 5546.02 992 5554.89 987.8C5564.22 983.133 5568.89 976.6 5568.89 968.2C5568.89 959.8 5563.29 953.967 5552.09 950.7C5541.35 946.967 5524.09 943.467 5500.29 940.2C5469.95 936.467 5444.05 931.567 5422.59 925.5C5401.59 919.433 5383.39 908.233 5367.99 891.9C5352.59 875.567 5344.89 852.7 5344.89 823.3C5344.89 799.033 5352.12 777.567 5366.59 758.9C5381.05 739.767 5402.05 724.833 5429.59 714.1C5457.59 702.9 5490.95 697.3 5529.69 697.3C5557.22 697.3 5584.52 700.1 5611.59 705.7C5638.65 711.3 5661.29 719.233 5679.49 729.5L5639.59 819.8C5605.99 801.133 5569.59 791.8 5530.39 791.8C5509.39 791.8 5493.99 794.367 5484.19 799.5C5474.39 804.167 5469.49 810.467 5469.49 818.4C5469.49 827.267 5474.85 833.567 5485.59 837.3C5496.32 840.567 5514.05 844.067 5538.79 847.8C5570.05 852.467 5595.95 857.833 5616.49 863.9C5637.02 869.967 5654.75 881.167 5669.69 897.5C5685.09 913.367 5692.79 935.767 5692.79 964.7C5692.79 988.5 5685.55 1009.97 5671.09 1029.1C5656.62 1047.77 5635.15 1062.47 5606.69 1073.2C5578.69 1083.93 5544.85 1089.3 5505.19 1089.3Z" fill="#D6FF00"/>
<path d="M2202.23 1384.88C2185.78 1384.88 2170.9 1381.28 2157.58 1374.07C2144.42 1366.71 2134.08 1356.68 2126.56 1343.99C2119.04 1331.14 2115.28 1316.73 2115.28 1300.75C2115.28 1284.77 2119.04 1270.43 2126.56 1257.74C2134.08 1244.9 2144.5 1234.87 2157.82 1227.66C2171.13 1220.3 2186.02 1216.62 2202.47 1216.62C2215.31 1216.62 2227.06 1218.81 2237.72 1223.2C2248.37 1227.43 2257.46 1233.77 2264.98 1242.23L2249.7 1257.04C2237.32 1244.04 2221.89 1237.53 2203.41 1237.53C2191.19 1237.53 2180.14 1240.28 2170.27 1245.76C2160.4 1251.24 2152.65 1258.84 2147.01 1268.55C2141.52 1278.11 2138.78 1288.84 2138.78 1300.75C2138.78 1312.66 2141.52 1323.47 2147.01 1333.18C2152.65 1342.74 2160.4 1350.26 2170.27 1355.74C2180.14 1361.22 2191.19 1363.96 2203.41 1363.96C2221.74 1363.96 2237.17 1357.38 2249.7 1344.22L2264.98 1359.03C2257.46 1367.49 2248.29 1373.91 2237.48 1378.3C2226.83 1382.69 2215.08 1384.88 2202.23 1384.88ZM2357.01 1257.27C2372.84 1257.27 2385.37 1261.9 2394.61 1271.14C2404.01 1280.23 2408.71 1293.62 2408.71 1311.32V1383H2386.15V1313.91C2386.15 1301.85 2383.26 1292.76 2377.46 1286.65C2371.66 1280.54 2363.36 1277.48 2352.55 1277.48C2340.33 1277.48 2330.69 1281.09 2323.64 1288.29C2316.59 1295.34 2313.07 1305.53 2313.07 1318.84V1383H2290.51V1208.63H2313.07V1276.07C2317.77 1270.12 2323.88 1265.5 2331.4 1262.21C2339.08 1258.92 2347.61 1257.27 2357.01 1257.27ZM2559.02 1321.43C2559.02 1323.15 2558.86 1325.42 2558.55 1328.24H2457.5C2458.91 1339.21 2463.69 1348.06 2471.83 1354.8C2480.14 1361.38 2490.4 1364.67 2502.62 1364.67C2517.5 1364.67 2529.49 1359.66 2538.57 1349.63L2551.03 1364.2C2545.39 1370.78 2538.34 1375.79 2529.88 1379.24C2521.58 1382.69 2512.25 1384.41 2501.91 1384.41C2488.75 1384.41 2477.08 1381.75 2466.9 1376.42C2456.72 1370.94 2448.8 1363.34 2443.16 1353.62C2437.68 1343.91 2434.94 1332.94 2434.94 1320.72C2434.94 1308.66 2437.6 1297.77 2442.93 1288.06C2448.41 1278.35 2455.85 1270.83 2465.25 1265.5C2474.81 1260.02 2485.54 1257.27 2497.45 1257.27C2509.36 1257.27 2519.93 1260.02 2529.17 1265.5C2538.57 1270.83 2545.86 1278.35 2551.03 1288.06C2556.36 1297.77 2559.02 1308.9 2559.02 1321.43ZM2497.45 1276.31C2486.64 1276.31 2477.55 1279.6 2470.19 1286.18C2462.98 1292.76 2458.75 1301.38 2457.5 1312.03H2537.4C2536.15 1301.53 2531.84 1292.99 2524.47 1286.41C2517.27 1279.68 2508.26 1276.31 2497.45 1276.31ZM2621.37 1384.41C2611.18 1384.41 2601.39 1383.08 2591.99 1380.41C2582.59 1377.59 2575.23 1374.07 2569.9 1369.84L2579.3 1351.98C2584.78 1355.9 2591.44 1359.03 2599.28 1361.38C2607.11 1363.73 2615.02 1364.9 2623.01 1364.9C2642.75 1364.9 2652.62 1359.26 2652.62 1347.98C2652.62 1344.22 2651.29 1341.25 2648.63 1339.05C2645.96 1336.86 2642.59 1335.29 2638.52 1334.35C2634.6 1333.26 2628.96 1332.08 2621.6 1330.83C2611.57 1329.26 2603.35 1327.46 2596.93 1325.42C2590.66 1323.39 2585.25 1319.94 2580.71 1315.08C2576.17 1310.23 2573.9 1303.41 2573.9 1294.64C2573.9 1283.36 2578.6 1274.35 2588 1267.61C2597.4 1260.72 2610.01 1257.27 2625.83 1257.27C2634.13 1257.27 2642.44 1258.29 2650.74 1260.33C2659.04 1262.37 2665.86 1265.11 2671.19 1268.55L2661.55 1286.41C2651.37 1279.83 2639.38 1276.54 2625.6 1276.54C2616.04 1276.54 2608.75 1278.11 2603.74 1281.24C2598.73 1284.38 2596.22 1288.53 2596.22 1293.7C2596.22 1297.77 2597.63 1300.98 2600.45 1303.33C2603.27 1305.68 2606.72 1307.41 2610.79 1308.5C2615.02 1309.6 2620.9 1310.85 2628.42 1312.26C2638.44 1313.99 2646.51 1315.87 2652.62 1317.9C2658.89 1319.78 2664.21 1323.07 2668.6 1327.77C2672.99 1332.47 2675.18 1339.05 2675.18 1347.51C2675.18 1358.79 2670.32 1367.8 2660.61 1374.54C2651.05 1381.12 2637.97 1384.41 2621.37 1384.41ZM2734.39 1384.41C2724.21 1384.41 2714.42 1383.08 2705.02 1380.41C2695.62 1377.59 2688.26 1374.07 2682.93 1369.84L2692.33 1351.98C2697.81 1355.9 2704.47 1359.03 2712.3 1361.38C2720.14 1363.73 2728.05 1364.9 2736.04 1364.9C2755.78 1364.9 2765.65 1359.26 2765.65 1347.98C2765.65 1344.22 2764.32 1341.25 2761.65 1339.05C2758.99 1336.86 2755.62 1335.29 2751.55 1334.35C2747.63 1333.26 2741.99 1332.08 2734.63 1330.83C2724.6 1329.26 2716.38 1327.46 2709.95 1325.42C2703.69 1323.39 2698.28 1319.94 2693.74 1315.08C2689.2 1310.23 2686.92 1303.41 2686.92 1294.64C2686.92 1283.36 2691.62 1274.35 2701.02 1267.61C2710.42 1260.72 2723.04 1257.27 2738.86 1257.27C2747.16 1257.27 2755.47 1258.29 2763.77 1260.33C2772.07 1262.37 2778.89 1265.11 2784.21 1268.55L2774.58 1286.41C2764.4 1279.83 2752.41 1276.54 2738.62 1276.54C2729.07 1276.54 2721.78 1278.11 2716.77 1281.24C2711.76 1284.38 2709.25 1288.53 2709.25 1293.7C2709.25 1297.77 2710.66 1300.98 2713.48 1303.33C2716.3 1305.68 2719.75 1307.41 2723.82 1308.5C2728.05 1309.6 2733.92 1310.85 2741.44 1312.26C2751.47 1313.99 2759.54 1315.87 2765.65 1317.9C2771.92 1319.78 2777.24 1323.07 2781.63 1327.77C2786.02 1332.47 2788.21 1339.05 2788.21 1347.51C2788.21 1358.79 2783.35 1367.8 2773.64 1374.54C2764.08 1381.12 2751 1384.41 2734.39 1384.41ZM2946.96 1384.88C2930.51 1384.88 2915.63 1381.28 2902.31 1374.07C2889.15 1366.71 2878.81 1356.68 2871.29 1343.99C2863.77 1331.14 2860.01 1316.73 2860.01 1300.75C2860.01 1284.77 2863.77 1270.43 2871.29 1257.74C2878.81 1244.9 2889.23 1234.87 2902.54 1227.66C2915.86 1220.3 2930.74 1216.62 2947.19 1216.62C2960.04 1216.62 2971.79 1218.81 2982.44 1223.2C2993.1 1227.43 3002.18 1233.77 3009.7 1242.23L2994.43 1257.04C2982.05 1244.04 2966.62 1237.53 2948.13 1237.53C2935.91 1237.53 2924.87 1240.28 2915 1245.76C2905.13 1251.24 2897.37 1258.84 2891.73 1268.55C2886.25 1278.11 2883.51 1288.84 2883.51 1300.75C2883.51 1312.66 2886.25 1323.47 2891.73 1333.18C2897.37 1342.74 2905.13 1350.26 2915 1355.74C2924.87 1361.22 2935.91 1363.96 2948.13 1363.96C2966.46 1363.96 2981.9 1357.38 2994.43 1344.22L3009.7 1359.03C3002.18 1367.49 2993.02 1373.91 2982.21 1378.3C2971.56 1382.69 2959.81 1384.88 2946.96 1384.88ZM3035.24 1208.63H3057.8V1383H3035.24V1208.63ZM3212.26 1258.45V1383H3190.88V1364.2C3186.34 1370.62 3180.3 1375.64 3172.78 1379.24C3165.42 1382.69 3157.35 1384.41 3148.58 1384.41C3131.97 1384.41 3118.89 1379.87 3109.33 1370.78C3099.78 1361.54 3095 1347.98 3095 1330.12V1258.45H3117.56V1327.54C3117.56 1339.6 3120.46 1348.77 3126.25 1355.03C3132.05 1361.14 3140.35 1364.2 3151.16 1364.2C3163.07 1364.2 3172.47 1360.6 3179.36 1353.39C3186.26 1346.18 3189.7 1336 3189.7 1322.84V1258.45H3212.26ZM3316.55 1257.27C3328.61 1257.27 3339.42 1259.94 3348.98 1265.26C3358.53 1270.59 3365.98 1278.03 3371.3 1287.59C3376.79 1297.15 3379.53 1308.19 3379.53 1320.72C3379.53 1333.26 3376.79 1344.38 3371.3 1354.09C3365.98 1363.65 3358.53 1371.09 3348.98 1376.42C3339.42 1381.75 3328.61 1384.41 3316.55 1384.41C3307.3 1384.41 3298.84 1382.61 3291.17 1379C3283.49 1375.4 3277.15 1370.15 3272.13 1363.26V1383H3250.51V1208.63H3273.07V1277.25C3278.09 1270.67 3284.35 1265.73 3291.87 1262.44C3299.39 1259 3307.62 1257.27 3316.55 1257.27ZM3314.67 1364.67C3322.66 1364.67 3329.79 1362.87 3336.05 1359.26C3342.48 1355.5 3347.49 1350.33 3351.09 1343.75C3354.85 1337.02 3356.73 1329.34 3356.73 1320.72C3356.73 1312.11 3354.85 1304.51 3351.09 1297.93C3347.49 1291.19 3342.48 1286.02 3336.05 1282.42C3329.79 1278.82 3322.66 1277.01 3314.67 1277.01C3306.83 1277.01 3299.71 1278.82 3293.28 1282.42C3286.86 1286.02 3281.85 1291.19 3278.24 1297.93C3274.64 1304.51 3272.84 1312.11 3272.84 1320.72C3272.84 1329.34 3274.64 1337.02 3278.24 1343.75C3281.85 1350.33 3286.86 1355.5 3293.28 1359.26C3299.71 1362.87 3306.83 1364.67 3314.67 1364.67Z" fill="#D6FF00"/>
</g>
<defs>
<clipPath id="clip0_0_11">
<rect width="1818" height="6166" fill="white" transform="matrix(0 -1 1 0 0 1818)"/>
</clipPath>
</defs>
</svg>
